# xmcd
#
# Track frame offsets:
#	150
#	14710
#	34666
#	50976
#	66285
#	81439
#	96001
#	117150
#	131988
#	151227
#
# Disc length: 2204 seconds
#
# Revision: 0
# Processed by: cddbd v1.5.1PL2 Copyright (c) Steve Scherf et al.
# Submitted via: dBpowerAMP V4.0
#
DISCID=8d089a0a
DTITLE=Inga Rumpf - My Life is a Boogie
DYEAR=1977
DGENRE=Rhythmen Blues
TTITLE0=01. My Life is a Boogie
TTITLE1=02. Keeo on Knocking
TTITLE2=03. I Don't Wanna  Harm You
TTITLE3=04. Hideaway
TTITLE4=05. I Took the Worst
TTITLE5=06. Let the Children Live
TTITLE6=07. Don't tread me this Way
TTITLE7=08. There's always on Who
TTITLE8=09. This Night
TTITLE9=Jukebox Palace
EXTD=Inga Rumpf from Frumpy
EXTT0=
EXTT1=
EXTT2=
EXTT3=
EXTT4=
EXTT5=
EXTT6=
EXTT7=
EXTT8=
EXTT9=
PLAYORDER=
